<svg width="14" height="14" viewBox="0 0 14 14" fill="none" xmlns="http://www.w3.org/2000/svg">
<g id="Frame">
<path id="Vector" d="M12.734 6.8209L1.29745 1.08691C1.25097 1.06367 1.19765 1.0582 1.14706 1.07051C1.03085 1.09922 0.958391 1.2168 0.987102 1.33437L2.16562 6.14961C2.18339 6.22207 2.23671 6.28086 2.30781 6.3041L4.32714 6.99726L2.30917 7.69043C2.23808 7.71504 2.18476 7.77246 2.16835 7.84492L0.987102 12.667C0.974797 12.7176 0.980266 12.7709 1.00351 12.816C1.05683 12.924 1.18808 12.9678 1.29745 12.9145L12.734 7.21328C12.7764 7.19277 12.8105 7.15723 12.8324 7.11621C12.8857 7.00683 12.842 6.87558 12.734 6.8209ZM2.33515 11.2971L3.02284 8.48613L7.05878 7.10117C7.09023 7.09023 7.1162 7.06562 7.12714 7.03281C7.14628 6.97539 7.1162 6.91387 7.05878 6.89336L3.02284 5.50976L2.33788 2.70976L10.9238 7.01504L2.33515 11.2971Z" fill="#3F3F3F"/>
</g>
</svg>
